<svg id="Layer_1" data-name="Layer 1" xmlns="http://www.w3.org/2000/svg" viewBox="0 0 1200.03 1200.01"><defs><style>.cls-1{fill:#71bdd9;}</style></defs><path class="cls-1" d="M57.14,0A57,57,0,0,0,0,57.15V914.29a57,57,0,0,0,57.14,57.14H413.4c-54.24,84.94-150.76,153.63-271.86,190.39a14.8,14.8,0,0,0-10.27,14.29,14.57,14.57,0,0,0,11.16,13.39c135.29,28.86,296.66-3.87,426.34-71.57,73.5-38.39,137.46-88.52,179.91-146.43h394.2A57,57,0,0,0,1200,914.36V57.22A57,57,0,0,0,1142.88.07Zm200,400a85.72,85.72,0,1,1-85.71,85.71A85.71,85.71,0,0,1,257.14,400M600,400a85.72,85.72,0,1,1-85.71,85.71A85.71,85.71,0,0,1,600,400m342.86,0a85.72,85.72,0,1,1-85.71,85.71A85.71,85.71,0,0,1,942.86,400" transform="translate(0)"/></svg>