<?xml version="1.0" encoding="utf-8"?>
<!-- Generator: Adobe Illustrator 26.0.3, SVG Export Plug-In . SVG Version: 6.00 Build 0)  -->
<svg version="1.1" id="Layer_1" xmlns="http://www.w3.org/2000/svg" xmlns:xlink="http://www.w3.org/1999/xlink" x="0px" y="0px"
	 viewBox="0 0 513.3 513.3" style="enable-background:new 0 0 513.3 513.3;" xml:space="preserve">
<style type="text/css">
	.st0{fill:#71BDD9;}
</style>
<path class="st0" d="M176.5,0c-10,0-18,9.2-18,20.7v62.4h178.3c5.6,0,11.1,1.2,16.2,3.5L363,61h29.3l72.8,186.9h-26.9L420.9,200
	h-42.6v126l70.5,80.9V305.2h46.5c10,0,18-9.2,18-20.7V20.7c0-11.5-8-20.7-18-20.7L176.5,0z M377.6,86l-6.4,17c4.5,7.3,7,15.6,7,24.2
	V179h34.6L377.6,86z"/>
<path class="st0" d="M18,106.5c-10,0-18,9.2-18,20.7v263.8c0,11.5,8,20.7,18,20.7h46.5v101.7l88.7-101.7h183.5c10,0,18-9.2,18-20.7
	V127.1c0-11.5-8-20.7-18-20.7H18z M150.2,166.4h4.4c3.8,0.1,7.6,0.3,11.4,0.8c5.3,0.6,9.1,0.8,11.4,0.8c0.6,2.2,0,5.3-1.8,9.2
	c-1,1.2-1.6,2.6-1.8,4.1c-1.2,2.8-2.1,7.2-2.6,13.3c-0.4,1.1-0.7,2.2-0.9,3.4c3.3-0.1,6.5-0.6,9.7-1.7c13.4-1.4,26.6-3.9,39.5-7.5
	v20c-15.9,3.9-32.1,7-48.3,9.2h-4.4c-0.6,5.5-1.2,12.2-1.8,20c1.8-0.1,3.6-0.4,5.3-0.8c9.9-1.7,17.3-2.8,21.9-3.3
	c0.1-1.1,0.4-2.3,0.9-3.3v-5c-0.6-2.2,0-3.6,1.8-4.2l21.1,3.3l0.9,2.5c-1,2.2-1.9,4.4-2.6,6.6c14.1,1.1,25.5,5.3,34.2,12.5
	c13.5,12.8,20.2,26.6,20.2,41.6v5.8c-0.6,20-12,36.6-34.3,49.9c-8.8,5-15.8,7.5-21.1,7.5h-0.9l-4.4-4.2c-6.5-5-11.4-8.6-14.9-10.8
	c14.7-2.2,27.3-6.6,37.8-13.3c10.5-8.9,16.1-19.1,16.7-30.8v-3.3c-0.6-12.8-6.7-23.3-18.5-31.6c-2.3-1.7-5.8-3-10.5-4.1h-0.9
	c-3.1-1.3-6.3-2.2-9.7-2.5c-7.6,20.5-20.2,41-37.8,61.6c1.5,4.9,3.5,9.7,6.1,14.1c-2.9,0.5-7,2.2-12.3,5c-2.1,0.3-4.2,0.9-6.1,1.7
	c-2-1.4-3.6-3.5-4.4-5.8c-3.1,2.2-6.3,4.1-9.7,5.8c-12.3,8.3-23.1,12.5-32.5,12.5H108c-13.5-1.1-20.8-10.5-22-28.3v-3.3
	c0.6-17.2,9.1-33.6,25.5-49.1c7.6-7.2,18.4-13.9,32.5-20c0.7-5.8,1-11.6,0.9-17.5c0.6-5,0.9-7.2,0.9-6.6h-13.1
	c-6.4,0.6-11.4,0.8-14.9,0.8h-13.2c-0.9-0.1-1.8-0.4-2.6-0.8l-3.5-6.7c-0.5-1.4-1-2.8-1.7-4.1v-0.9c-1.8-3.3-2.1-5.8-0.9-7.5h9.7
	c2.9,0.4,5.9,0.7,8.8,0.8h13.1c7.1,0.1,14.1-0.4,21.1-1.7c0.1-1.7,0.4-3.4,0.9-5c1-6.6,1.6-13.3,1.8-20
	C151.1,172.4,150.8,169.4,150.2,166.4L150.2,166.4z M188.8,249.6c-10,1.7-17,3.3-21.1,5c-0.9,0.1-1.8,0.4-2.6,0.8v19.1
	c0,10,0.3,15,0.9,15C177.1,275.1,184.7,261.8,188.8,249.6L188.8,249.6z M144.1,263.7c-13.7,7.5-25,18.7-32.5,32.5
	c-3.5,4.4-5.3,10-5.3,16.6c0,7.8,3.8,11.7,11.4,11.6c7,0,14.3-3,21.9-9.1l1.8-1.7c2.9-3.3,4.9-5.3,6.1-5.8l-0.9-2.5
	C144.9,291.5,144,277.6,144.1,263.7L144.1,263.7z"/>
</svg>
