<?xml version="1.0" encoding="utf-8"?>
<!-- Generator: Adobe Illustrator 26.0.3, SVG Export Plug-In . SVG Version: 6.00 Build 0)  -->
<svg version="1.1" id="Layer_1" xmlns="http://www.w3.org/2000/svg" xmlns:xlink="http://www.w3.org/1999/xlink" x="0px" y="0px"
	 viewBox="0 0 448.8 448.6" style="enable-background:new 0 0 448.8 448.6;" xml:space="preserve">
<style type="text/css">
	.st0{fill-rule:evenodd;clip-rule:evenodd;fill:#71BDD9;}
</style>
<path class="st0" d="M0.9,138.5C-9.2,52.7,66.5,3.9,73.2,2.3c5-1.7,13.5-11.8,47.1,30.3c31.9,42,55.5,75.7,35.3,94.2
	c-21.9,18.5-53.8,42-37,74c13.5,28.6,100.9,114.4,127.8,127.8c33.6,16.8,55.5-15.1,74-35.3c18.5-21.9,53.8,1.7,95.8,33.6
	c42,33.6,32,42,30.3,48.8c-1.7,5-50.5,80.7-137.9,72.3C217.9,437.8,9.3,229.3,0.9,138.5L0.9,138.5z"/>
</svg>
