<svg id="Layer_1" data-name="Layer 1" xmlns="http://www.w3.org/2000/svg" viewBox="0 0 522.67 522.66"><defs><style>.cls-1{fill:#71bdd9;}</style></defs><path class="cls-1" d="M256.67,242.67H126A18.68,18.68,0,0,1,107.33,224V56A18.68,18.68,0,0,1,126,37.33H387.33A18.68,18.68,0,0,1,406,56V168h18.67V28a9.34,9.34,0,0,0-9.34-9.33H98A9.33,9.33,0,0,0,88.67,28V261.33h168Z" transform="translate(-88.67 -18.67)"/><path class="cls-1" d="M98,298.67H256.67V280h-168v9.33A9.32,9.32,0,0,0,98,298.67Z" transform="translate(-88.67 -18.67)"/><path class="cls-1" d="M359.33,541.33h168a18.71,18.71,0,0,0-18.66-18.66H378a18.66,18.66,0,0,0-18.67,18.66Z" transform="translate(-88.67 -18.67)"/><path class="cls-1" d="M172.67,373.33h84V354.67H191.33a18.64,18.64,0,0,0-18.66,18.66Z" transform="translate(-88.67 -18.67)"/><path class="cls-1" d="M387.33,168V56H126V224H256.67V196h-56A18.68,18.68,0,0,1,182,177.33v-28a9.34,9.34,0,0,1,18.67,0v28H264A27.86,27.86,0,0,1,284.67,168h28V149.33a9.33,9.33,0,1,1,18.66,0V168Zm-105.4-49.4a9.34,9.34,0,0,1-13.2,0L266,115.86v33.47a9.34,9.34,0,1,1-18.67,0V115.86l-2.74,2.74a9.33,9.33,0,0,1-13.19-13.2l18.67-18.67h0a9.34,9.34,0,0,1,13.2,0l18.67,18.67a9.34,9.34,0,0,1,0,13.2Z" transform="translate(-88.67 -18.67)"/><path class="cls-1" d="M256.67,317.33H227.74A44.09,44.09,0,0,1,219.33,336h37.34Z" transform="translate(-88.67 -18.67)"/><path class="cls-1" d="M414.4,485.33A44.2,44.2,0,0,1,406,504h74.67a44.2,44.2,0,0,1-8.4-18.67Z" transform="translate(-88.67 -18.67)"/><path class="cls-1" d="M312.67,392H574V224H312.67Zm105.4-99.93a9.34,9.34,0,0,1,13.2,0L434,294.8V261.33a9.34,9.34,0,0,1,18.67,0V294.8l2.74-2.73a9.33,9.33,0,0,1,13.19,13.2l-18.67,18.66h0a9.34,9.34,0,0,1-13.2,0l-18.67-18.66a9.34,9.34,0,0,1,0-13.2Zm-49.4,25.26a9.34,9.34,0,0,1,18.67,0v28h112v-28a9.33,9.33,0,1,1,18.66,0v28A18.66,18.66,0,0,1,499.34,364h-112a18.68,18.68,0,0,1-18.67-18.67Z" transform="translate(-88.67 -18.67)"/><path class="cls-1" d="M275.33,457.33a9.34,9.34,0,0,0,9.34,9.34H602a9.34,9.34,0,0,0,9.33-9.34V448h-336Z" transform="translate(-88.67 -18.67)"/><path class="cls-1" d="M602,186.67H284.67a9.34,9.34,0,0,0-9.34,9.33V429.33h336V196a9.32,9.32,0,0,0-9.33-9.33ZM592.67,392A18.68,18.68,0,0,1,574,410.67H312.67A18.68,18.68,0,0,1,294,392V224a18.68,18.68,0,0,1,18.67-18.67H574A18.68,18.68,0,0,1,592.67,224Z" transform="translate(-88.67 -18.67)"/></svg>